<?xml version="1.0" encoding="UTF-8"?>
<svg version="1.1" xmlns="http://www.w3.org/2000/svg" width="487" height="663">
<path d="M0 0 C1.27245672 -0.02561059 1.27245672 -0.02561059 2.57061964 -0.05173856 C3.5028853 -0.05527819 4.43515095 -0.05881782 5.39566708 -0.06246471 C6.38600049 -0.07772817 7.37633391 -0.09299163 8.39667743 -0.10871762 C11.73112091 -0.15598449 15.06536891 -0.18149026 18.40004635 -0.2067976 C20.78505862 -0.23540724 23.17005834 -0.26508046 25.55504513 -0.29574108 C32.72771007 -0.38187584 39.90046604 -0.44118015 47.0734531 -0.49191812 C49.10204768 -0.50631034 51.13063751 -0.52125964 53.15922713 -0.5363338 C65.77297355 -0.62930901 78.38676209 -0.70931868 91.00075531 -0.75959015 C93.92307834 -0.77143766 96.84540063 -0.78344671 99.76772213 -0.79566479 C100.49400466 -0.79868987 101.22028718 -0.80171495 101.96857827 -0.80483171 C113.70362047 -0.85572606 125.4367504 -0.97889638 137.17086149 -1.13173375 C149.23730927 -1.28759564 161.30277912 -1.37448729 173.37022442 -1.39618081 C180.13833563 -1.41010895 186.90332535 -1.45370132 193.670434 -1.5754137 C200.05027989 -1.68667371 206.42483237 -1.71104493 212.80546856 -1.6713953 C215.13472233 -1.67155614 217.46422313 -1.70203907 219.7925806 -1.7666502 C231.41953318 -2.07178307 239.82760546 -1.61838473 248.60516161 6.61431485 C252.23532199 10.38890195 255.56649167 14.34737741 258.85488033 18.4194231 C260.11929797 19.8940719 261.39109097 21.36243954 262.67134094 22.82336426 C263.48936018 23.75972364 263.48936018 23.75972364 264.32390505 24.71499938 C266.57464864 27.22073596 268.94473042 29.5659826 271.35488033 31.9194231 C274.45202436 34.97041155 277.47439167 38.0428582 280.29238033 41.3569231 C283.30840882 44.89621436 286.54936257 48.15436456 289.85488033 51.4194231 C293.11870966 54.64340103 296.32318197 57.85460184 299.29238033 61.3569231 C303.01778904 65.74626603 307.12482392 69.74229317 311.23744869 73.76488209 C311.77506832 74.29412281 312.31268795 74.82336353 312.86659908 75.36864185 C313.3457275 75.83616871 313.82485592 76.30369556 314.31850338 76.7853899 C315.07900997 77.59423634 315.07900997 77.59423634 315.85488033 78.4194231 C316.56394527 79.12599049 317.27301022 79.83255787 318.00356197 80.56053638 C320.55084744 84.49416593 320.45729865 87.61610844 320.46425533 92.21239185 C320.48092754 93.09161808 320.49759975 93.97084431 320.51477718 94.87671375 C320.56443126 97.78686657 320.58531878 100.69642405 320.60488033 103.6069231 C320.63141315 105.63786386 320.65918445 107.66878877 320.68813229 109.69969654 C320.75853626 115.13133526 320.79995257 120.56281821 320.83272457 125.99480152 C320.85527431 129.480321 320.88527896 132.96571311 320.91689205 136.45116138 C320.96763502 142.23967696 321.00411522 148.02810482 321.02809811 153.81679249 C321.03761929 156.05180992 321.04958205 158.28681829 321.06398678 160.52180958 C321.08159763 163.64922204 321.08562136 166.77634253 321.08534908 169.9037981 C321.09603672 171.30995129 321.09603672 171.30995129 321.10694027 172.7445116 C321.10392406 173.59855076 321.10090786 174.45258991 321.09780025 175.33250904 C321.09922527 176.07756702 321.10065029 176.82262501 321.10211849 177.59026051 C320.85488033 179.4194231 320.85488033 179.4194231 318.85488033 181.4194231 C317.04984093 181.66831207 317.04984093 181.66831207 314.82471371 181.66666126 C313.56063435 181.672953 313.56063435 181.672953 312.27101803 181.67937183 C311.34470577 181.67375233 310.41839352 181.66813282 309.46401119 181.66234303 C308.48996838 181.66424137 307.51592556 181.66613972 306.51236629 181.66809559 C303.2814046 181.67181098 300.05066592 181.661089 296.81972408 181.64989185 C294.58295372 181.64870046 292.34618286 181.6482468 290.10941219 181.6485033 C285.41768425 181.64693716 280.72603248 181.63863695 276.03432369 181.62523365 C270.00570501 181.60823385 263.97717004 181.60441951 257.9485302 181.60517883 C253.329039 181.60490756 248.70956628 181.59943336 244.09008121 181.59217739 C241.86641295 181.5889845 239.64274258 181.58702188 237.41907215 181.58628368 C234.31812974 181.58412722 231.21727803 181.57539839 228.11635494 181.56468678 C227.18801846 181.56513996 226.25968197 181.56559315 225.30321407 181.56606007 C218.96935416 181.53389693 218.96935416 181.53389693 217.85488033 180.4194231 C217.60677816 178.01493333 217.42754183 175.63992304 217.29628658 173.22801685 C217.25330944 172.47532017 217.2103323 171.72262348 217.16605282 170.94711781 C216.85420885 164.86339857 216.80691302 158.79512079 216.81972408 152.70457935 C216.81200595 149.9079405 216.80208219 147.11131672 216.79164791 144.31468678 C216.79213944 142.41360058 216.80532605 140.51247855 216.83071041 138.61156178 C217.3412743 125.73071221 217.3412743 125.73071221 212.07363033 114.4116106 C210.7059905 113.04123092 209.30402836 111.70330362 207.85488033 110.4194231 C207.0517944 109.50289967 206.24870846 108.58637623 205.42128658 107.64207935 C204.75999752 106.92922779 204.09870846 106.21637623 203.41738033 105.4819231 C199.5071251 101.19671189 195.84675562 96.75475252 192.20644283 92.2397356 C188.86223706 88.22891074 185.30717882 84.43350537 181.72597408 80.63426685 C179.85488033 78.4194231 179.85488033 78.4194231 179.85488033 76.4194231 C163.3354895 76.10502077 146.81601918 75.83077721 130.29514217 75.60924244 C122.93281533 75.50986276 115.57103469 75.40005204 108.20937252 75.25926685 C101.40052877 75.12922816 94.59201209 75.0364519 87.78227901 74.96751881 C85.21566652 74.93557928 82.64917695 74.89124193 80.08299923 74.83421803 C76.497374 74.75668403 72.91386981 74.72345709 69.32753658 74.7006731 C68.27814907 74.66772144 67.22876156 74.63476978 66.14757442 74.60081959 C59.48732384 74.61889744 56.12611426 75.95539244 51.40334225 80.69981861 C50.89234982 81.26728809 50.38135738 81.83475758 49.85488033 82.4194231 C48.83200924 83.5022356 48.83200924 83.5022356 47.78847408 84.6069231 C47.29476315 85.2050481 46.80105221 85.8031731 46.29238033 86.4194231 C44.0726893 89.03674587 41.80611748 91.51731989 39.35488033 93.9194231 C36.26913563 96.95006522 33.44711573 100.149267 30.62831783 103.4272356 C28.28009947 106.06510204 25.7792681 108.52371293 23.23769283 110.9741106 C20.4806772 113.85573711 20.72482039 116.21430118 20.71227932 120.07801723 C20.70597138 121.2892874 20.69966344 122.50055757 20.69316435 123.74853289 C20.69118056 125.10486342 20.68930362 126.4611941 20.68752193 127.81752491 C20.68207774 129.24898161 20.67621453 130.68043678 20.66996622 132.1118902 C20.65408174 136.05966897 20.64458894 140.0074415 20.63620138 143.9552424 C20.62820777 147.33791528 20.61651504 150.72057125 20.60478657 154.10323294 C20.56284107 166.22162856 20.53566946 178.34004405 20.51113033 190.4584856 C20.50915543 191.41459341 20.50718053 192.37070121 20.50514579 193.35578197 C20.46598684 212.33380505 20.43227229 231.31183463 20.41006374 250.28988552 C20.40509427 254.46408695 20.40004997 258.63828828 20.3949194 262.81248951 C20.39364872 263.84999396 20.39237805 264.88749842 20.39106888 265.9564424 C20.36970801 282.76397747 20.32071353 299.57131704 20.26067525 316.37875374 C20.19956825 333.62736296 20.1648778 350.87587131 20.15559053 368.12458742 C20.14967656 377.81204847 20.13189391 387.49917846 20.08420467 397.18653202 C20.04362714 405.43695985 20.02671705 413.68700262 20.04085749 421.93752582 C20.04732983 426.14735034 20.04244264 430.35635454 20.00698376 434.56605244 C19.97476634 438.42189339 19.97499549 442.27633546 20.00080079 446.13221209 C20.00444777 447.5253085 19.99630032 448.9184975 19.97501928 450.31143613 C19.82412831 459.40960026 19.82412831 459.40960026 24.18916225 467.08176708 C25.38520826 468.22207418 26.60697096 469.33611867 27.85488033 470.4194231 C29.02813547 471.60041411 30.19572916 472.78708591 31.35488033 473.9819231 C32.51965392 475.12968075 33.68634339 476.27549716 34.85488033 477.4194231 C38.61744668 481.13847442 42.34118954 484.84227259 45.79238033 488.8569231 C46.27227791 489.41069944 46.75217548 489.96447578 47.24661541 490.53503323 C48.28489537 491.75157673 49.29568087 492.99239136 50.27091503 494.26003551 C53.59260511 498.17461487 56.07500535 499.87324119 61.23836422 500.38905811 C63.37092975 500.4668052 65.50509725 500.50648935 67.63906002 500.51561451 C68.80925182 500.54715626 69.97944363 500.57869801 71.18509579 500.61119556 C75.04934843 500.70306943 78.91155397 500.74118484 82.77675533 500.7709856 C84.11704058 500.7875328 85.45731468 500.80500871 86.79757595 500.82339573 C93.82865678 500.91804211 100.85885555 500.97107917 107.89052486 500.99120045 C114.39782852 501.01108872 120.89845588 501.12843174 127.4036119 501.29099238 C133.0228776 501.42640124 138.63995862 501.48642988 144.26083779 501.49179685 C147.60531056 501.4964787 150.93713308 501.53937957 154.28086758 501.64225101 C167.19834707 502.00938655 177.40495009 502.04678104 187.23961926 492.86558056 C191.02706049 488.89720731 194.46174774 484.72477379 197.85488033 480.4194231 C199.12644588 478.92732649 200.4078974 477.44357444 201.7010107 475.9701128 C202.24674614 475.34775053 202.79248158 474.72538826 203.35475445 474.08416653 C205.39748819 471.81727173 207.54249867 469.67125441 209.72988033 467.5444231 C213.67840139 463.95293354 213.67840139 463.95293354 215.00636959 459.02170277 C215.01889767 458.01656132 215.03142574 457.01141987 215.04433346 455.97581959 C215.06105099 454.83801548 215.07776852 453.70021137 215.09499264 452.52792835 C215.10856808 451.29458256 215.12214352 450.06123676 215.13613033 448.79051685 C215.16374447 446.90055737 215.16374447 446.90055737 215.19191647 444.97241688 C215.26085066 440.24652783 215.32122032 435.52055759 215.38094234 430.79454517 C215.43984713 426.16811687 215.5059841 421.54182734 215.57363033 416.91551685 C215.58720577 415.68014683 215.60078121 414.4447768 215.61476803 413.17197132 C215.63148556 412.03731937 215.64820309 410.90266743 215.66542721 409.73363209 C215.68421932 408.2271133 215.68421932 408.2271133 215.70339108 406.6901598 C215.85488033 404.4194231 215.85488033 404.4194231 216.85488033 403.4194231 C218.1956085 403.32415274 219.54130537 403.29753541 220.88541317 403.29916859 C221.7534457 403.29779392 222.62147823 403.29641926 223.51581478 403.29500294 C224.95511097 403.30039585 224.95511097 403.30039585 226.42348385 403.30589771 C227.42824764 403.30575169 228.43301144 403.30560566 229.46822262 403.30545521 C232.80676551 403.3061548 236.14525338 403.31394936 239.48378658 403.32176685 C241.79164251 403.32363087 244.09949884 403.32505485 246.40735531 403.32605457 C252.49505859 403.32988106 258.58273819 403.33971245 264.67043209 403.35075855 C270.87709387 403.36096987 277.08375946 403.36555159 283.29042721 403.37059498 C295.47858868 403.38133461 307.66673254 403.39841259 319.85488033 403.4194231 C319.92053562 405.9489625 319.98612328 408.47850362 320.05165768 411.00804615 C320.07221848 411.80109716 320.09277927 412.59414818 320.11396313 413.41123104 C320.22802854 417.8195002 320.34093057 422.22779534 320.45189571 426.63614368 C320.49734011 428.43939219 320.54280111 430.24264028 320.58827877 432.04588795 C320.61085814 432.94177663 320.6334375 433.83766531 320.65670109 434.76070213 C320.787212 439.89554893 320.92898973 445.02984068 321.0824194 450.16405201 C321.23935953 455.50063656 321.35016209 460.83619625 321.42470455 466.17455006 C321.46243217 468.26509423 321.5179518 470.35537284 321.58876705 472.44505787 C322.23885528 492.239795 322.23885528 492.239795 316.54238033 498.64207935 C315.02045378 499.94994607 313.45998126 501.21508644 311.85488033 502.4194231 C310.6298346 503.61080962 309.41797476 504.81618432 308.22988033 506.0444231 C307.66913815 506.59485279 307.10839596 507.14528248 306.53066158 507.71239185 C304.7443459 509.53201878 303.08010198 511.42396227 301.41738033 513.3569231 C298.37808382 516.88577073 295.14471186 520.14947337 291.82753658 523.41551685 C289.28150204 526.00188462 286.93466477 528.7347759 284.56972408 531.48582935 C282.35440654 533.98373866 279.98589863 536.29967299 277.60488033 538.6381731 C275.77245546 540.50331985 274.06134899 542.43870056 272.35488033 544.4194231 C270.10930094 547.02589919 267.80936521 549.50876831 265.35488033 551.9194231 C263.02043693 554.21779343 260.80915433 556.56556603 258.66738033 559.0444231 C255.40543419 562.80082714 252.12126661 566.53475413 248.79238033 570.2319231 C248.29778316 570.79540455 247.803186 571.35888599 247.29360104 571.93944263 C246.80722164 572.4755315 246.32084225 573.01162037 245.81972408 573.56395435 C245.39296383 574.04195484 244.96620358 574.51995533 244.52651119 575.01244068 C239.04783886 579.62374325 233.88783241 579.85531263 227.06912899 579.82056141 C226.08888884 579.82735808 225.10864868 579.83415475 224.09870428 579.84115738 C220.8168821 579.86013502 217.53543293 579.85769215 214.25356197 579.85521412 C211.89952775 579.86419116 209.54549795 579.87439928 207.19147396 579.88574696 C200.79897753 579.91225377 194.40660156 579.91928064 188.01405549 579.92119431 C183.35090763 579.92368393 178.68778662 579.93238195 174.02464823 579.94170375 C161.48448883 579.96660891 148.94439327 579.97783151 136.40421004 579.97569454 C135.69256258 579.97557468 134.98091513 579.97545481 134.2477026 579.97533131 C133.53518424 579.97520866 132.82266587 579.97508602 132.08855604 579.97495966 C120.53785765 579.97373996 108.98745249 580.00245936 97.43683893 580.04474641 C85.57033404 580.08784652 73.70397217 580.10855658 61.83738703 580.10596508 C55.17768717 580.10496959 48.51825778 580.11377607 41.85862064 580.14549923 C35.59661137 580.17451433 29.33525226 580.17480002 23.07322025 580.15294933 C20.77502654 580.14980844 18.47679253 580.15692063 16.17866802 580.17503071 C13.04088342 580.19815642 9.90535074 580.18428627 6.76761532 580.16113758 C5.85827034 580.17656827 4.94892535 580.19199896 4.01202446 580.20789725 C-1.70642456 580.11466978 -4.66668833 578.92581219 -8.77353674 574.90650028 C-9.22615911 574.41576481 -9.67878147 573.92502934 -10.14511967 573.4194231 C-10.7832056 572.74137623 -11.42129154 572.06332935 -12.07871342 571.3647356 C-12.57500248 570.76403248 -13.07129154 570.16332935 -13.58261967 569.5444231 C-15.99588357 566.70465394 -18.48683386 564.03161147 -21.14511967 561.4194231 C-23.7449415 558.85952176 -26.20780364 556.2516277 -28.58261967 553.4819231 C-31.15177237 550.49140594 -33.83829223 547.68825626 -36.64511967 544.9194231 C-40.05230757 541.55827828 -43.21970141 538.08241107 -46.33261967 534.4506731 C-48.35604847 532.18303738 -50.48165313 530.0536536 -52.64511967 527.9194231 C-55.41072374 525.19112903 -58.05798998 522.43425476 -60.58261967 519.4819231 C-64.08262863 515.39722587 -67.88657386 511.66264415 -71.71152592 507.88426685 C-74.49691901 505.06310627 -77.10630179 502.13095569 -79.67246342 499.11082935 C-81.06222407 497.39770485 -81.06222407 497.39770485 -82.71356547 496.23317564 C-84.88789726 493.47833772 -84.52127108 491.17990198 -84.52264309 487.70797634 C-84.52700341 487.0188447 -84.53136373 486.32971306 -84.53585619 485.61969864 C-84.54686948 483.2932731 -84.53636262 480.96743319 -84.52607059 478.64101124 C-84.52952478 476.96318868 -84.53428773 475.28536839 -84.54025233 473.60755289 C-84.55282514 468.98348218 -84.54656351 464.3595962 -84.53729367 459.73552465 C-84.53052902 454.75382712 -84.54097161 449.77216221 -84.54923344 444.79047108 C-84.56260125 435.02543021 -84.55967932 425.26045836 -84.55099551 415.49541475 C-84.54423056 407.56073979 -84.54329709 399.62608422 -84.54656696 391.6914072 C-84.54702666 390.56368526 -84.54748636 389.43596332 -84.54795999 388.27406799 C-84.54891913 385.98336224 -84.54989177 383.6926565 -84.55087776 381.40195076 C-84.55944079 359.90105005 -84.54958364 338.40018766 -84.53347667 316.89929323 C-84.5200763 298.43983815 -84.5223975 279.98043966 -84.53623295 261.5209856 C-84.55227893 240.10207002 -84.55861289 218.68318808 -84.54939616 197.26426733 C-84.54844048 194.98120173 -84.54749737 192.69813614 -84.54656696 190.41507053 C-84.54610414 189.29166618 -84.54564131 188.16826182 -84.54516446 187.01081491 C-84.54257135 179.08424115 -84.54695254 171.15768867 -84.55400562 163.2311182 C-84.56241009 153.57314673 -84.56016285 143.91524843 -84.54416339 134.25728537 C-84.53626592 129.3271054 -84.53321413 124.39704753 -84.54311085 119.4668684 C-84.55202795 114.95654334 -84.54717431 110.44645394 -84.53117819 105.93615036 C-84.52781765 104.30157476 -84.5295529 102.66697938 -84.53680556 101.03241642 C-84.54589007 98.81550944 -84.53661087 96.59941622 -84.52264309 94.38255215 C-84.52215603 93.14970757 -84.52166898 91.916863 -84.52116716 90.64665949 C-83.86665059 85.02960383 -80.86052675 81.89901694 -76.89511967 78.1069231 C-73.99662937 75.27867086 -71.21666522 72.43300389 -68.58261967 69.3569231 C-65.58794511 65.8642888 -62.3907443 62.64588428 -59.11386967 59.4194231 C-57.20525512 57.48051308 -55.41801415 55.48242759 -53.64511967 53.4194231 C-50.62870044 49.909408 -47.41416835 46.66891034 -44.11777592 43.42332935 C-41.57174137 40.83696159 -39.2249041 38.1040703 -36.85996342 35.35301685 C-34.64464587 32.85510755 -32.27613796 30.53917322 -29.89511967 28.2006731 C-28.0626948 26.33552636 -26.35158832 24.40014565 -24.64511967 22.4194231 C-21.86756484 19.19547554 -18.94551299 16.19638592 -15.91074467 13.2162981 C-13.3926392 10.6536244 -11.05889262 7.9448588 -8.72324467 5.2162981 C-8.20246342 4.62332935 -7.68168217 4.0303606 -7.14511967 3.4194231 C-6.70306393 2.89601316 -6.2610082 2.37260321 -5.80555683 1.83333236 C-3.73058351 0.06643383 -2.69818422 0.03170816 0 0 Z " fill="#E31C19" transform="translate(125.14511966705322,42.58057689666748)"/>
<path d="M0 0 C10.49198912 -0.07402377 20.98397204 -0.13237536 31.47614288 -0.17531967 C37.35885577 -0.19988363 43.24125681 -0.23248213 49.12379074 -0.2851696 C54.53870586 -0.33325945 59.95320546 -0.35824026 65.36832619 -0.36424828 C67.30987856 -0.37046792 69.25142635 -0.38520288 71.19283867 -0.409338 C73.80108293 -0.44061939 76.40756292 -0.44120295 79.01594162 -0.43379021 C79.76411085 -0.45019869 80.51228008 -0.46660717 81.28312111 -0.48351288 C87.01854395 -0.4148366 89.2670181 1.27035348 93.17634201 5.14970589 C94.34299119 6.38182082 95.47846284 7.64491419 96.56696701 8.94658089 C100.2223756 13.22794309 104.05142646 17.31722243 107.92634201 21.39970589 C113.47104311 27.26524847 118.96639519 33.16774018 124.40681076 39.13017464 C127.61662283 42.63999105 130.86531936 46.11325039 134.11384201 49.58720589 C138.4837567 54.26037299 142.84178493 58.94371897 147.17634201 63.64970589 C151.4911801 68.33378969 155.82760232 72.99708266 160.17634201 77.64970589 C165.03054711 82.84348647 169.86916351 88.05094797 174.68342209 93.28178596 C177.36996519 96.19931313 180.06732572 99.10604134 182.77790451 102.00126839 C183.37594894 102.64120735 183.97399338 103.28114632 184.59016037 103.94047737 C185.75053403 105.18135046 186.91273541 106.42051757 188.07697678 107.65776253 C193.10711608 113.04236691 193.31976107 115.99995962 193.28937912 123.20048714 C193.28908927 124.61041687 193.28908927 124.61041687 193.28879356 126.04883003 C193.28648823 129.1866531 193.2765467 132.32439977 193.26618576 135.46220589 C193.26215129 137.67428235 193.25832489 139.88635919 193.25469589 142.09843636 C193.20748826 164.57161035 193.02954704 187.04390628 192.80402756 209.51591682 C192.74744987 215.17431464 192.69785046 220.83275376 192.64962482 226.4912281 C192.61092885 230.90905914 192.56781903 235.32683868 192.52340126 239.74461555 C192.50307202 241.83708907 192.48434394 243.92957879 192.46726799 246.02208138 C192.44338442 248.892817 192.41335309 251.76342236 192.38166428 254.63408089 C192.37590881 255.48857826 192.37015335 256.34307564 192.36422348 257.22346687 C192.29052551 263.03552239 192.29052551 263.03552239 191.17634201 264.14970589 C188.80056415 264.24956744 186.45380194 264.28413113 184.07746506 264.27668953 C183.32594256 264.27824952 182.57442007 264.27980951 181.80012417 264.28141677 C179.2627502 264.28542961 176.72543526 264.28223605 174.18806076 264.27910042 C172.37675059 264.28045433 170.56544069 264.28223421 168.75413132 264.28441048 C163.82038961 264.28898597 158.88666872 264.28719478 153.95292664 264.28403139 C148.80173052 264.28150838 143.65053624 264.28384516 138.49934006 264.28541756 C129.84707442 264.28723943 121.1948173 264.28483249 112.54255295 264.28007698 C102.52407238 264.27463433 92.50561215 264.27639697 82.48713207 264.28190339 C73.90202758 264.28643402 65.31692923 264.28708531 56.73182392 264.28446472 C51.59706476 264.28290167 46.46231517 264.28270893 41.32755661 264.28600121 C36.50136864 264.2888792 31.67520702 264.28690555 26.84902191 264.28110695 C25.0724034 264.27977896 23.29578269 264.28017411 21.51916504 264.28236961 C19.10448588 264.28507963 16.68989257 264.28170185 14.27521896 264.27668953 C13.20670968 264.28003561 13.20670968 264.28003561 12.11661434 264.28344929 C7.29049187 264.26385575 7.29049187 264.26385575 6.17634201 263.14970589 C6.09374905 260.52983941 6.07518713 257.93591285 6.09797287 255.31620979 C6.10409233 253.61297355 6.11001873 251.9097366 6.11577988 250.2064991 C6.12278821 248.8436875 6.12278821 248.8436875 6.12993813 247.45334435 C6.14906799 242.64508117 6.1339007 237.83688665 6.12360764 233.02861214 C6.1113851 226.90806375 6.10948333 220.78821109 6.15217209 214.66777229 C6.18573749 209.72541086 6.18000033 204.78442868 6.14860344 199.84206963 C6.14370054 197.96436948 6.15285669 196.08657433 6.17681313 194.20902061 C6.32260707 182.05842631 5.55362217 175.39336308 -2.82365799 166.14970589 C-3.15365799 165.15970589 -3.48365799 164.16970589 -3.82365799 163.14970589 C-8.00325346 160.77518919 -12.29232592 160.83518544 -16.97526932 160.81157112 C-17.78244904 160.80003502 -18.58962875 160.78849892 -19.42126846 160.77661324 C-22.08276211 160.74239674 -24.74402432 160.72382363 -27.40568924 160.70829964 C-28.77393624 160.69794528 -28.77393624 160.69794528 -30.1698246 160.68738174 C-34.99657608 160.65158755 -39.82321129 160.62802608 -44.65007401 160.6143055 C-49.62366497 160.59775563 -54.59583465 160.53931694 -59.56894779 160.47116184 C-63.40467944 160.42629518 -67.24007255 160.41280512 -71.07604408 160.40768814 C-72.90884757 160.39981386 -74.74164117 160.38022733 -76.57418633 160.34846497 C-87.93878515 159.77779484 -87.93878515 159.77779484 -97.82634354 164.49760628 C-99.45931805 166.29084654 -99.45931805 166.29084654 -100.82365799 168.14970589 C-101.57961006 168.96458725 -101.57961006 168.96458725 -102.35083389 169.79593086 C-106.4032643 174.22463615 -106.94380044 177.59287318 -106.97070312 183.42246342 C-106.98168994 185.03388813 -106.98168994 185.03388813 -106.9928987 186.67786688 C-106.99592317 187.85732604 -106.99894763 189.0367852 -107.00206375 190.25198555 C-107.00911843 191.50552599 -107.0161731 192.75906644 -107.02344155 194.05059296 C-107.04285184 197.53217494 -107.05606843 201.01375719 -107.06824374 204.49537098 C-107.0824124 208.24936786 -107.10220186 212.00333585 -107.12118912 215.75731087 C-107.16156905 223.96580606 -107.19448411 232.17432098 -107.22577572 240.38285518 C-107.24531765 245.50670733 -107.26629788 250.63055297 -107.28753281 255.75439835 C-107.34602965 269.93713911 -107.40262607 284.11988462 -107.45237732 298.30265903 C-107.45715809 299.66414658 -107.45715809 299.66414658 -107.46203543 301.05313892 C-107.46522866 301.96297825 -107.46842188 302.87281759 -107.47171187 303.81022781 C-107.47818421 305.65393731 -107.48465974 307.4976468 -107.49113846 309.34135628 C-107.4943505 310.25590145 -107.49756255 311.17044663 -107.50087193 312.1127053 C-107.55330965 326.94011015 -107.61927789 341.7674216 -107.69105729 356.5947442 C-107.76453363 371.81273704 -107.82672642 387.03074184 -107.87756085 402.24882752 C-107.90637439 410.79532617 -107.94007627 419.34174406 -107.9862175 427.88816833 C-108.02544308 435.16355817 -108.05439243 442.43889691 -108.06984511 449.71437769 C-108.07804133 453.42742729 -108.0911506 457.14029016 -108.11735725 460.85326004 C-108.14560947 464.875725 -108.15057567 468.89787941 -108.1531868 472.92044258 C-108.16513415 474.09767102 -108.1770815 475.27489946 -108.1893909 476.48780149 C-108.18473122 478.10313783 -108.18473122 478.10313783 -108.17997742 479.75110722 C-108.18361227 480.67963345 -108.18724712 481.60815969 -108.19099212 482.56482309 C-107.40732245 488.0794053 -103.75585915 491.48560935 -99.82365799 495.14970589 C-99.28482986 495.67048714 -98.74600174 496.19126839 -98.19084549 496.72783089 C-97.61592361 497.25892464 -97.04100174 497.79001839 -96.44865799 498.33720589 C-95.92529861 498.82576057 -95.40193924 499.31431526 -94.86272049 499.81767464 C-89.78709489 503.13336109 -84.1094151 503.3990715 -78.20769119 503.39262581 C-77.11851898 503.39547333 -77.11851898 503.39547333 -76.00734329 503.39837837 C-73.62959547 503.40205508 -71.25215947 503.39142856 -68.87443924 503.38017464 C-67.21250825 503.3789812 -65.55057657 503.37853002 -63.88864517 503.37878609 C-60.41633722 503.37722671 -56.94413317 503.36897711 -53.47185135 503.35551643 C-49.0231578 503.33848765 -44.57457778 503.33470357 -40.12585545 503.33546162 C-36.6986419 503.33518969 -33.27145312 503.32970544 -29.84424782 503.32246017 C-28.20360565 503.31928124 -26.56296068 503.31730791 -24.9223156 503.31656647 C-22.63197547 503.31439693 -20.34175547 503.30564056 -18.05144119 503.29496956 C-16.74907013 503.29115776 -15.44669907 503.28734596 -14.10486221 503.28341866 C-11.45589054 503.17547008 -9.2946516 503.07695758 -6.82365799 502.14970589 C-5.77450155 500.29684653 -5.77450155 500.29684653 -4.82365799 498.14970589 C-2.85775536 496.08960375 -0.78908001 494.18023397 1.30134201 492.24736214 C5.31562856 487.75637906 5.47463239 483.05137591 5.47932053 477.25419807 C5.48775986 476.47478859 5.49619919 475.6953791 5.50489426 474.89235115 C5.5305977 472.32708795 5.54279213 469.76193954 5.55524826 467.19658089 C5.57142576 465.41249369 5.58860602 463.62841532 5.60674667 461.844347 C5.65237344 457.15617633 5.68721707 452.46799389 5.71894455 447.77971077 C5.7708887 440.26119395 5.83579977 432.74280619 5.90715981 425.22445107 C5.93005617 422.59365183 5.94628222 419.96286927 5.96187973 417.3320179 C5.97527931 415.73055521 5.98889349 414.1290943 6.00275803 412.52763557 C6.0053714 411.79102699 6.00798477 411.05441841 6.01067734 410.29548836 C6.06270071 405.26334719 6.06270071 405.26334719 7.17634201 404.14970589 C9.56472359 404.04983553 11.92424366 404.01528182 14.31318283 404.02272224 C15.06878888 404.02116225 15.82439492 404.01960226 16.60289812 404.017995 C19.15409152 404.01398213 21.70522621 404.01717574 24.25642014 404.02031136 C26.0775824 404.01895744 27.89874439 404.01717757 29.71990585 404.0150013 C34.68050617 404.01042578 39.64108578 404.01221701 44.60168648 404.01538038 C49.78090981 404.01790338 54.96013131 404.01556662 60.13935471 404.01399422 C68.83869878 404.01217234 77.53803438 404.01457929 86.23737717 404.01933479 C96.31038928 404.02477745 106.38338115 404.0230148 116.45639277 404.01750839 C125.08820599 404.01297776 133.72001311 404.01232646 142.35182714 404.01494706 C147.51453197 404.01651011 152.67722727 404.01670283 157.83993149 404.01341057 C162.69238424 404.01053259 167.54481077 404.0125062 172.39726067 404.01830482 C174.18355452 404.01963282 175.96985057 404.01923765 177.75614357 404.01704216 C180.18395975 404.01433218 182.61169053 404.01770989 185.03950119 404.02272224 C186.1138469 404.01937616 186.1138469 404.01937616 187.20989656 404.01596248 C192.06219215 404.03555603 192.06219215 404.03555603 193.17634201 405.14970589 C193.28820372 407.02957712 193.32935817 408.91367403 193.34370041 410.79681587 C193.35519119 412.0235099 193.36668198 413.25020393 193.37852097 414.51407051 C193.38614689 415.88618578 193.39361845 417.25830191 193.40095139 418.63041878 C193.41212134 420.06584623 193.42363449 421.50127105 193.43546677 422.93669319 C193.4721021 427.66521231 193.49726038 432.39375853 193.52009201 437.12236214 C193.52403788 437.92664044 193.52798374 438.73091875 193.53204918 439.55956912 C193.56848291 447.14522343 193.59993073 454.73088694 193.6211586 462.31659985 C193.64871218 472.02003364 193.69941907 481.72273467 193.7816329 491.42586333 C193.83746965 498.24717616 193.86640152 505.06829056 193.87563181 511.88982385 C193.88188443 515.96379518 193.89995929 520.03690853 193.94701767 524.11063004 C193.99079515 527.94816733 194.00113975 531.78438094 193.98638916 535.62212563 C193.98671696 537.02658531 193.99892729 538.43110316 194.02423859 539.83533478 C194.22740865 551.74075347 194.22740865 551.74075347 189.83076096 556.83987617 C188.63903056 557.97162794 187.42146434 559.07697396 186.17634201 560.14970589 C185.07561094 561.25739546 183.98074196 562.37098127 182.89509201 563.49345589 C181.2922042 565.07305719 179.68163268 566.64454395 178.07087326 568.21611214 C175.29045447 570.95613743 172.64256686 573.73742025 170.11384201 576.71220589 C164.10299131 583.6682845 157.38845943 589.99066139 150.85554123 596.44999886 C142.19335068 605.0159656 142.19335068 605.0159656 134.04157639 614.06181526 C128.9776953 619.73018058 123.40734608 624.96437427 118.00104904 630.30449104 C112.39731506 635.8457604 106.84068514 641.3684969 101.72370529 647.37089729 C99.07666866 650.41386178 96.224494 653.2465818 93.36384201 656.08720589 C92.79214279 656.66277229 92.22044357 657.2383387 91.63142014 657.83134651 C87.80400436 661.64976718 86.06485733 663.27001701 80.70466805 663.2923069 C79.75813594 663.29861484 78.81160384 663.30492278 77.83638895 663.31142187 C76.78933365 663.31328387 75.74227835 663.31514586 74.66349411 663.31706429 C73.55670354 663.32285767 72.44991298 663.32865106 71.30958331 663.33462 C67.57555795 663.35275586 63.8415478 663.36357347 60.10749435 663.37431526 C58.1195382 663.38264087 56.13158203 663.39097246 54.14362805 663.39979964 C44.6832066 663.44173431 35.22275976 663.46891779 25.76227951 663.49345589 C24.64242923 663.49641824 24.64242923 663.49641824 23.49995571 663.49944043 C8.67778118 663.5386042 -6.14440172 663.57231247 -20.96661186 663.59452248 C-24.22641512 663.59949186 -27.48621826 663.60453616 -30.74602127 663.60966682 C-31.556239 663.6109375 -32.36645673 663.61220817 -33.20122652 663.61351734 C-46.32286911 663.63487219 -59.44426108 663.68386087 -72.56577761 663.74391097 C-86.03562479 663.80504704 -99.50534273 663.83971261 -112.9753269 663.84899569 C-120.53895769 663.85490595 -128.10216415 663.87265175 -135.66565704 663.92038155 C-142.10818062 663.96099966 -148.55021064 663.97785399 -154.99285658 663.96372873 C-158.27930614 663.95726473 -161.5644851 663.96590523 -164.85081863 663.99760246 C-168.41771523 664.03019021 -171.98198549 664.01958505 -175.54890823 663.99821663 C-176.5825792 664.0179244 -177.61625016 664.03763217 -178.68124449 664.05793715 C-185.17808612 663.95966508 -188.51972109 662.61221473 -193.13586843 657.99711847 C-193.69283898 657.38747232 -194.24980954 656.77782617 -194.82365799 656.14970589 C-195.72808638 655.21491315 -195.72808638 655.21491315 -196.65078604 654.26123571 C-198.32551419 652.52375922 -199.95142067 650.7487204 -201.57365799 648.96220589 C-206.03842693 644.1060978 -210.56338159 639.34347965 -215.26115799 634.71220589 C-218.33475277 631.67856636 -221.3458806 628.63738168 -224.13615799 625.33720589 C-228.21024216 620.53884009 -232.74013801 616.18296412 -237.23112869 611.77934456 C-240.37818932 608.67492815 -243.40679087 605.53115082 -246.29240799 602.18095589 C-249.9343229 597.95731779 -253.84400098 594.05312426 -257.82365799 590.14970589 C-261.77930845 586.26983417 -265.66793335 582.39321076 -269.28068924 578.18876839 C-273.80655475 572.93234473 -278.79916142 568.15935079 -283.77092361 563.32939339 C-284.85470291 562.26204964 -284.85470291 562.26204964 -285.96037674 561.17314339 C-286.60708328 560.54327522 -287.25378983 559.91340706 -287.92009354 559.26445198 C-292.52377598 554.15003652 -294.32366039 550.60779401 -294.32422924 543.65861988 C-294.32974341 542.921639 -294.33525757 542.18465813 -294.34093884 541.4253445 C-294.35454206 538.95402949 -294.33963298 536.48371888 -294.32486343 534.01242256 C-294.32875603 532.22349061 -294.33439615 530.43456174 -294.34163433 528.64564019 C-294.35641328 523.72817893 -294.34619316 518.8110371 -294.33189762 513.89358604 C-294.32080536 508.59079518 -294.33272475 503.28804976 -294.34173965 497.98526192 C-294.35568688 487.59562481 -294.34810455 477.20610908 -294.33306407 466.81647774 C-294.31621724 454.71913231 -294.31941265 442.62181723 -294.32315815 430.52446369 C-294.32903965 408.93850099 -294.31485482 387.35259658 -294.29021072 365.76664925 C-294.26629806 344.81903586 -294.25920264 323.87150039 -294.26970291 302.92387581 C-294.28111308 280.120166 -294.28304025 257.31649225 -294.26860482 234.51278287 C-294.26707897 232.08084222 -294.26555861 229.64890157 -294.26404381 227.21696091 C-294.26328599 226.02037339 -294.26252818 224.82378587 -294.2617474 223.59093812 C-294.25700464 215.15825841 -294.25885603 206.7255948 -294.26310921 198.29291534 C-294.26803681 188.01406329 -294.26204752 177.7352849 -294.24221491 167.45644971 C-294.23234499 162.21184257 -294.22723456 156.96734757 -294.23510742 151.72273445 C-294.24216856 146.92057012 -294.23534929 142.11863201 -294.21750379 137.31649748 C-294.21346205 135.58032792 -294.21445457 133.84413771 -294.22102266 132.10797586 C-294.29409348 110.98288242 -294.29409348 110.98288242 -287.69865799 104.21220589 C-287.07346268 103.55091682 -286.44826736 102.88962776 -285.80412674 102.20829964 C-285.15057205 101.5289637 -284.49701736 100.84962776 -283.82365799 100.14970589 C-282.55160866 98.6924331 -281.28087693 97.23400958 -280.01115799 95.77470589 C-274.70179233 89.86929745 -269.0417973 84.31462284 -263.38298416 78.74589729 C-259.24120736 74.65121162 -255.30389081 70.47237468 -251.50774002 66.05644417 C-248.75699854 62.94202101 -245.79162187 60.05520362 -242.82365799 57.14970589 C-238.58959783 52.9643258 -234.50533756 48.75291065 -230.65959549 44.20439339 C-227.66214347 40.84979815 -224.42729008 37.73371268 -221.22771072 34.57328987 C-217.87272232 31.24356255 -214.72625194 27.81021368 -211.66350174 24.20829964 C-209.31873466 21.58474921 -206.82778151 19.11934198 -204.32365799 16.64970589 C-200.44543438 12.82468151 -196.79433664 8.93460725 -193.35881424 4.70829964 C-190.83426129 2.14520389 -188.65405534 1.228396 -185.06186485 0.88799286 C-183.99165533 0.8824621 -182.92144581 0.87693134 -181.81880569 0.87123299 C-180.58416612 0.86006762 -179.34952654 0.84890224 -178.07747364 0.83739853 C-176.70787524 0.83503111 -175.3382765 0.83285782 -173.96867752 0.83085823 C-172.51890099 0.82156456 -171.06912976 0.81141157 -169.61936474 0.80046844 C-165.65063592 0.77305054 -161.68194246 0.75800796 -157.71314359 0.74506474 C-153.48044536 0.72915611 -149.24781855 0.70191174 -145.01517105 0.67613411 C-135.88307765 0.62268623 -126.75095818 0.58369396 -117.61878204 0.5476017 C-111.96976706 0.52516988 -106.32076967 0.49953029 -100.671772 0.47313118 C-85.55963582 0.40283614 -70.44749965 0.33427836 -55.33530045 0.2788868 C-36.88996239 0.21105397 -18.44501005 0.13046483 0 0 Z M-42.43711472 20.14898014 C-57.15869214 20.13909271 -71.88011934 20.15450935 -86.6016655 20.18619823 C-95.86457538 20.2053575 -105.12721003 20.21281406 -114.39012527 20.19301033 C-122.39748797 20.17607525 -130.40438454 20.18368355 -138.41168255 20.2215519 C-142.56453779 20.24040709 -146.71659205 20.24754646 -150.86944389 20.2244854 C-154.71925463 20.20339806 -158.56758466 20.21490665 -162.41726565 20.25157034 C-163.81628942 20.25921273 -165.21543824 20.25507772 -166.61437726 20.23788679 C-175.77816035 20.10628833 -175.77816035 20.10628833 -183.50445938 24.50222969 C-184.63740009 25.69336222 -185.74569437 26.90859922 -186.82365799 28.14970589 C-187.94211821 29.23984108 -189.06728726 30.32318871 -190.20256424 31.39579964 C-191.26702476 32.45633709 -192.32820467 33.52017699 -193.38615799 34.58720589 C-193.95205643 35.15503792 -194.51795486 35.72286995 -195.10100174 36.30790901 C-198.5127614 39.75504406 -201.75013119 43.29294426 -204.88615799 46.99345589 C-207.58396421 49.99585313 -210.45410056 52.81230937 -213.32365799 55.64970589 C-218.41947793 60.68820594 -218.41947793 60.68820594 -223.19865799 66.02470589 C-227.24726864 70.80572852 -231.76169338 75.1375773 -236.23137283 79.52031136 C-239.3689352 82.61535268 -242.38750931 85.74823768 -245.26115799 89.09111214 C-249.71572309 94.25845777 -254.61466156 98.9581709 -259.50725174 103.70634651 C-269.85390752 113.39654462 -269.85390752 113.39654462 -273.95245916 126.32623613 C-273.95424773 127.59428736 -273.9560363 128.86233859 -273.95787907 130.16881561 C-273.9602313 130.87906199 -273.96258353 131.58930836 -273.96500704 132.32107735 C-273.97169098 134.71313669 -273.971239 137.10514165 -273.97082901 139.49720955 C-273.97412799 141.22467781 -273.97785363 142.9521453 -273.98197049 144.6796118 C-273.99199432 149.43625131 -273.99570788 154.19287821 -273.9983598 158.94952679 C-274.00226158 164.07573229 -274.01183984 169.20192779 -274.02057266 174.32812691 C-274.0403381 186.71072282 -274.05040226 199.09331955 -274.05930045 211.47592729 C-274.06368223 217.30390027 -274.06904923 223.13187233 -274.07428932 228.95984459 C-274.0912998 248.32649675 -274.10579558 267.69314834 -274.11303806 287.05980682 C-274.11494802 292.08586694 -274.11686834 297.11192704 -274.11882401 302.13798714 C-274.11930775 303.38721886 -274.11979149 304.63645058 -274.12028988 305.92353781 C-274.12859626 326.17565247 -274.15394423 346.42770819 -274.18640468 366.6797971 C-274.21944224 387.46088194 -274.23748373 408.24193679 -274.2406823 429.02304804 C-274.2428502 440.69556753 -274.25163992 452.36800098 -274.27714348 464.04049492 C-274.29880516 473.97765625 -274.30692319 483.91471067 -274.2971767 493.85189293 C-274.29261916 498.92401504 -274.2946025 503.99591633 -274.31393814 509.06800842 C-274.33147862 513.70915004 -274.33064666 518.34990824 -274.31504085 522.99105342 C-274.31265089 524.67205699 -274.31705974 526.35308648 -274.3288695 528.03405027 C-274.34391238 530.31614035 -274.33437029 532.5968584 -274.31864262 534.87891388 C-274.31961942 536.14728981 -274.32059623 537.41566575 -274.32160264 538.72247732 C-273.42007949 544.92743585 -269.42729969 548.79600592 -265.08537674 553.04814339 C-264.18238846 553.94017464 -263.27940018 554.83220589 -262.34904861 555.75126839 C-261.41254471 556.66650276 -260.4760408 557.58173714 -259.51115799 558.52470589 C-253.98156179 563.95026091 -248.54305788 569.3532299 -243.50651932 575.24199104 C-240.44764304 578.70957544 -237.12328646 581.91328869 -233.82365799 585.14970589 C-229.20539846 589.67949301 -224.79168519 594.27930072 -220.56975174 599.18095589 C-217.63752841 602.48708689 -214.4795513 605.55888254 -211.32365799 608.64970589 C-207.63754695 612.25981464 -204.00399781 615.87806527 -200.61332035 619.76989365 C-200.00325598 620.46703767 -199.39319162 621.16418169 -198.76464045 621.8824513 C-197.45100894 623.41689951 -196.15909572 624.97016441 -194.88771188 626.53979564 C-187.7146264 635.33387729 -180.82450456 643.73439106 -169.05411112 645.28830647 C-163.51279165 645.63342817 -158.02431856 645.56060598 -152.47722244 645.41777229 C-149.98493609 645.42388634 -147.49265861 645.43828505 -145.00046158 645.46025276 C-138.98121209 645.49172212 -132.96867268 645.43632791 -126.95061467 645.33911236 C-119.92993419 645.22974832 -112.9102276 645.22367852 -105.88883295 645.22137956 C-93.36120799 645.21397193 -80.83592087 645.11711378 -68.30925369 644.96757698 C-56.17391996 644.82281297 -44.04017956 644.73807325 -31.90398026 644.72148323 C-31.15479835 644.72044931 -30.40561645 644.71941538 -29.63373206 644.71835013 C-28.51182758 644.71682625 -28.51182758 644.71682625 -27.36725837 644.71527159 C-25.86108575 644.71321932 -24.35491315 644.71114778 -22.84874058 644.70905685 C-22.10581556 644.70803787 -21.36289055 644.70701888 -20.59745266 644.70596901 C-8.9947783 644.68771456 2.60764721 644.61676312 14.21005821 644.53967918 C18.40386824 644.51239076 22.59763764 644.49248036 26.79151013 644.47789009 C34.05938052 644.45226405 41.32578333 644.39044698 48.59308815 644.28903389 C51.00363056 644.26062457 53.41434399 644.2439318 55.82505035 644.239851 C59.11781682 644.23207288 62.40720642 644.18126639 65.69933701 644.1193409 C67.1273938 644.13048532 67.1273938 644.13048532 68.58430022 644.14185488 C74.837429 643.96140181 78.01464156 642.37710511 82.47004348 637.98332345 C83.033122 637.37822966 83.59620051 636.77313586 84.17634201 636.14970589 C84.76415898 635.5428305 85.35197594 634.93595512 85.95760554 634.31068957 C87.62419276 632.57568608 89.24473853 630.80406193 90.86384201 629.02470589 C97.98381404 621.30461134 105.37735709 613.88176485 112.85480881 606.50859261 C116.51079036 602.88836213 120.12332884 599.28941716 123.45759201 595.36845589 C129.37277021 588.46972346 136.039888 582.23393917 142.49714279 575.84941292 C151.37122887 567.08260494 151.37122887 567.08260494 159.72224045 557.82206917 C162.88875505 554.18025838 166.4501506 550.91792075 169.91852951 547.56767464 C173.05004004 544.21403274 173.30132446 541.75832984 173.29659653 537.34716988 C173.29797119 536.35858986 173.29934586 535.37000984 173.30076218 534.35147285 C173.2971669 533.26822227 173.29357162 532.18497169 173.2898674 531.06889534 C173.29008644 529.35648659 173.29008644 529.35648659 173.29030991 527.60948372 C173.28961194 523.82729902 173.28182493 520.04516326 173.27399826 516.26298714 C173.27213367 513.64410619 173.27070996 511.02522488 173.26971054 508.40634346 C173.26660154 502.21218222 173.25839395 496.01803861 173.24836105 489.82388514 C173.23718655 482.77195703 173.23168609 475.72002808 173.22666562 468.66809332 C173.21621099 454.16195508 173.19861987 439.65583073 173.17634201 425.14970589 C170.50389756 423.81348366 168.46947216 424.0237883 165.47576523 424.02272224 C164.26282288 424.01990242 163.04988052 424.0170826 161.80018234 424.01417732 C160.44892487 424.01612178 159.09766754 424.01816996 157.74641037 424.02031136 C156.32903625 424.01895694 154.91166249 424.01717678 153.4942894 424.0150013 C149.639083 424.01043221 145.78390328 424.01221427 141.92869639 424.01538038 C137.90126392 424.01790618 133.87383378 424.01556587 129.84640121 424.01399422 C123.08324904 424.01217338 116.32010777 424.01457681 109.55695724 424.01933479 C101.72710132 424.02477945 93.89727143 424.02301294 86.06741613 424.01750839 C79.35488694 424.01297744 72.6423656 424.01232655 65.92983538 424.01494706 C61.91627072 424.01650965 57.90271832 424.01670403 53.88915443 424.01341057 C50.11764742 424.01053205 46.34617414 424.01250717 42.57467079 424.01830482 C41.18667787 424.01963244 39.79868213 424.01923829 38.41069031 424.01704216 C36.52377292 424.01433079 34.63684936 424.01832536 32.74993515 424.02272224 C31.69154906 424.02309927 30.63316298 424.0234763 29.54270458 424.02386475 C27.22024489 423.88295008 27.22024489 423.88295008 26.17634201 425.14970589 C26.0734013 427.29578935 26.04060783 429.44525546 26.03449631 431.59379768 C26.03102188 432.26705589 26.02754745 432.9403141 26.02396774 433.63397408 C26.01659781 435.10122725 26.01125905 436.56849166 26.00767708 438.03575897 C26.00052509 440.36052088 25.98486644 442.68507004 25.9663353 445.00976753 C25.91381931 451.62140595 25.86592252 458.23293197 25.85041428 464.84477425 C25.84031361 468.88564231 25.8109312 472.92598161 25.76909447 476.96664047 C25.75680299 478.50511163 25.75165984 480.04365757 25.7538929 481.58217621 C25.75625481 483.74156781 25.73401375 485.89945385 25.70637131 488.05864143 C25.70050507 489.28584404 25.69463882 490.51304665 25.68859482 491.77743721 C24.89125808 497.02647378 21.93957621 500.67847033 18.18806076 504.29814339 C17.64963547 504.82504768 17.11121017 505.35195198 16.55646896 505.89482307 C15.99790207 506.4326844 15.43933517 506.97054573 14.86384201 507.52470589 C10.51521348 511.78026683 6.33580994 516.071461 2.44587326 520.75908089 C0.12006907 523.30673102 -1.15085031 523.16827239 -4.72165298 523.37089729 C-6.44781106 523.41977681 -8.17414205 523.46274484 -9.90056229 523.50126839 C-10.84236343 523.5255088 -11.78416458 523.54974922 -12.75450516 523.5747242 C-21.48006844 523.78676802 -30.20721001 523.91110383 -38.93472958 524.00901985 C-44.79317667 524.07588896 -50.64799364 524.17118326 -56.50456619 524.33622932 C-62.1742357 524.49529148 -67.84060039 524.57895408 -73.51235771 524.61180305 C-75.66352276 524.63680989 -77.8145631 524.68773527 -79.9644413 524.766222 C-97.63566831 525.3818133 -97.63566831 525.3818133 -104.42293167 519.85551643 C-107.71523737 516.75906918 -110.60934592 513.41401039 -113.40904045 509.87137032 C-115.23845973 507.64487021 -117.29786552 505.80027147 -119.51115799 503.96220589 C-120.10412674 503.45818245 -120.69709549 502.95415901 -121.30803299 502.43486214 C-121.80818924 502.01076057 -122.30834549 501.58665901 -122.82365799 501.14970589 C-126.15217756 498.07722628 -127.72220848 496.29496798 -127.94349194 491.61568451 C-127.93987825 490.0746981 -127.93987825 490.0746981 -127.93619156 488.50258064 C-127.93591146 487.31013111 -127.93563137 486.11768158 -127.93534279 484.88909721 C-127.92997862 483.54937154 -127.92456816 482.20964605 -127.91911697 480.86992073 C-127.91709656 479.43695445 -127.91555869 478.00398741 -127.91445732 476.57102013 C-127.91109814 473.41017002 -127.90461595 470.24934632 -127.89581871 467.0885067 C-127.87340956 459.01439239 -127.86494474 450.9402542 -127.85451448 442.86611724 C-127.85043138 439.85380455 -127.8456782 436.84149334 -127.84090519 433.82918167 C-127.81688763 417.37636215 -127.83903558 400.92379005 -127.87102127 384.47099495 C-127.91676581 360.71087656 -127.9268114 336.95102025 -127.90104709 313.19087358 C-127.89729502 309.69619428 -127.89392697 306.2015147 -127.89079666 302.70683479 C-127.89016717 302.01284335 -127.88953768 301.31885191 -127.88888912 300.60383043 C-127.87946182 289.16999839 -127.90257769 277.73642881 -127.93622775 266.30265196 C-127.97057803 254.38736711 -127.97090476 242.47243163 -127.9394874 230.55713689 C-127.92298107 223.93463962 -127.92273721 217.31281852 -127.96042442 210.69037437 C-127.99506979 204.52803038 -127.98774416 198.36717011 -127.94802856 192.20487022 C-127.94090081 189.95464249 -127.94906126 187.70430478 -127.97388268 185.45420265 C-128.16997049 166.38732185 -128.16997049 166.38732185 -122.49600601 159.9854908 C-120.97436402 158.66448391 -119.41824328 157.38167638 -117.82365799 156.14970589 C-116.51527036 154.83273426 -115.22157049 153.50075927 -113.95256424 152.14579964 C-112.76635219 150.95701166 -111.57760167 149.7707505 -110.38615799 148.58720589 C-109.7757869 147.97296761 -109.1654158 147.35872932 -108.53654861 146.72587776 C-107.95195877 146.14257698 -107.36736893 145.5592762 -106.76506424 144.95829964 C-106.24629715 144.44066048 -105.72753006 143.92302132 -105.19304276 143.38969612 C-102.67699845 141.11139535 -100.84606331 141.02556593 -97.55897903 141.02945137 C-96.66432938 141.02807671 -95.76967972 141.02670204 -94.84791946 141.02528572 C-93.86393173 141.028881 -92.879944 141.03247627 -91.86613846 141.0361805 C-90.83196793 141.03603447 -89.79779739 141.03588844 -88.73228836 141.03573799 C-85.30178633 141.03643665 -81.87133808 141.04422688 -78.44084549 141.05204964 C-76.06715805 141.05391398 -73.69347022 141.05533781 -71.31978226 141.05633736 C-65.06276264 141.06016123 -58.80576612 141.06999042 -52.54875565 141.08104134 C-46.16773669 141.09125825 -39.78671401 141.09583558 -33.40568924 141.10087776 C-20.87833562 141.11161278 -8.35099803 141.12849628 4.17634201 141.14970589 C4.47868256 141.77201088 4.7810231 142.39431587 5.09252548 143.03547859 C6.21357584 145.22233883 7.48115613 146.93323755 9.03962326 148.82939339 C9.59714279 149.51130745 10.15466232 150.19322151 10.72907639 150.89579964 C11.30979904 151.5983387 11.8905217 152.30087776 12.48884201 153.02470589 C13.0579631 153.71951057 13.6270842 154.41431526 14.21345139 155.13017464 C17.41276401 159.03545975 17.41276401 159.03545975 20.6739006 162.8889637 C24.8466035 167.74736426 25.30207874 170.83788963 25.33405685 177.15971565 C25.33913757 177.8689518 25.34421829 178.57818794 25.34945297 179.30891609 C25.360146 180.84762084 25.36877036 182.38634103 25.3755722 183.9250679 C25.38736182 186.35809788 25.40681235 188.79095041 25.42869186 191.22390938 C25.49032314 198.14076567 25.54444794 205.05760148 25.5777092 211.97465706 C25.59860326 216.20576945 25.63385745 220.43655455 25.6784668 224.66748047 C25.6926629 226.28182765 25.70135735 227.89623269 25.70452118 229.51063919 C25.70940632 231.76380743 25.73249792 234.01609925 25.7598381 236.26909065 C25.76792496 237.55243797 25.77601181 238.83578529 25.78434372 240.15802193 C25.97838287 241.63890549 25.97838287 241.63890549 26.17634201 243.14970589 C29.62900946 245.45148419 30.85938217 245.38981766 34.92124557 245.35898018 C36.11873428 245.35476051 37.31622299 245.35054085 38.54999924 245.34619331 C39.86544724 245.33122307 41.18089523 245.31625282 42.53620529 245.30082893 C43.93401716 245.2920405 45.33183477 245.28412728 46.72965622 245.27702522 C50.52705541 245.25510995 54.3242456 245.22055497 58.12152338 245.18349624 C62.09017734 245.14661636 66.05890257 245.12038466 70.02762985 245.09277534 C76.69071356 245.04482497 83.35369571 244.98905549 90.01667404 244.92827034 C97.73004232 244.85796089 105.44343461 244.79817147 113.15693486 244.74441117 C121.3573776 244.68715714 129.55774782 244.622347 137.75811529 244.55525422 C140.12689911 244.53638285 142.49568991 244.51892191 144.86448669 244.50176239 C148.57941267 244.4744701 152.29426122 244.44212858 156.0091095 244.40580177 C158.03062599 244.38717771 160.05218559 244.3734358 162.07374191 244.35980415 C163.26559097 244.34712502 164.45744003 244.33444588 165.68540573 244.32138252 C166.72774431 244.31233233 167.77008289 244.30328215 168.84400749 244.29395771 C171.13620127 244.41054929 171.13620127 244.41054929 172.17634201 243.14970589 C172.30171253 240.32991517 172.36245839 237.53345458 172.38166428 234.71220589 C172.39156387 233.82562798 172.40146347 232.93905006 172.41166306 232.02560616 C172.44346299 229.06700046 172.46815022 226.10837957 172.49274826 223.14970589 C172.51334427 221.0810984 172.53434139 219.01249487 172.55572128 216.94389534 C172.59980672 212.58234578 172.64068096 208.22078229 172.67902756 203.85917854 C172.74647988 196.18870639 172.82428104 188.5183468 172.90255928 180.84797859 C172.95503538 175.59506534 173.0011098 170.34223925 173.03318405 165.08915901 C173.04577195 163.08199668 173.05849463 161.0748352 173.07136154 159.06767464 C173.07747263 158.10956886 173.08358372 157.15146309 173.08987999 156.16432381 C173.13233934 150.71296301 173.25090849 145.27337578 173.44929123 139.82548714 C173.48175446 138.66315559 173.51421768 137.50082405 173.54766464 136.30327034 C173.60670465 134.31242095 173.69196529 132.32201886 173.81393051 130.33403206 C174.01694343 121.86996256 169.29177831 117.47250077 163.77009201 111.58329964 C163.07915451 110.9245887 162.38821701 110.26587776 161.67634201 109.58720589 C158.25595777 106.31359186 155.1530884 102.85740017 152.05475998 99.28422737 C148.95401491 95.7607267 145.71914831 92.36656739 142.48884201 88.96220589 C137.64891744 83.84118867 132.82162256 78.71071132 128.05134201 73.52470589 C123.77944889 68.88102809 119.4853147 64.25900447 115.17634201 59.64970589 C110.82753937 54.99713968 106.49132446 50.33365688 102.17634201 45.64970589 C97.69055224 40.78225978 93.18942172 35.92936433 88.67634201 31.08720589 C88.08852951 30.45556526 87.50071701 29.82392464 86.89509201 29.17314339 C86.05977951 28.27788948 86.05977951 28.27788948 85.20759201 27.36454964 C84.71839279 26.83982063 84.22919357 26.31509163 83.72517014 25.77446175 C82.95850021 24.9702076 82.95850021 24.9702076 82.17634201 24.14970589 C81.62060501 23.46588844 81.06486801 22.782071 80.4922905 22.07753181 C77.39189817 19.49672454 75.57779572 19.65999243 71.5723381 19.67973518 C70.90195983 19.67758727 70.23158155 19.67543936 69.54088879 19.67322636 C67.26005827 19.67098501 64.98044909 19.69774273 62.69977951 19.72392464 C61.01901217 19.72826189 59.33823953 19.73083679 57.65746689 19.73182869 C52.95491627 19.74016075 48.25285728 19.77436996 43.55047607 19.81372643 C38.47782525 19.85343892 33.40509254 19.87533637 28.33234787 19.89946175 C21.45866049 19.93353579 14.58503222 19.9713914 7.71142197 20.01867867 C-9.00509736 20.13029244 -25.72026361 20.16054063 -42.43711472 20.14898014 Z " fill="#FFFEF9" transform="translate(293.82365798950195,-0.14970588684082034)"/>
</svg>
